<?xml version="1.0" encoding="UTF-8" standalone="no"?>
<!-- Creator: Corel DESIGNER -->

<svg
   xmlns:dc="http://purl.org/dc/elements/1.1/"
   xmlns:cc="http://creativecommons.org/ns#"
   xmlns:rdf="http://www.w3.org/1999/02/22-rdf-syntax-ns#"
   xmlns:svg="http://www.w3.org/2000/svg"
   xmlns="http://www.w3.org/2000/svg"
   xmlns:sodipodi="http://sodipodi.sourceforge.net/DTD/sodipodi-0.dtd"
   xmlns:inkscape="http://www.inkscape.org/namespaces/inkscape"
   xml:space="preserve"
   width="160.07732mm"
   height="160.07732mm"
   style="clip-rule:evenodd;fill-rule:evenodd;image-rendering:optimizeQuality;shape-rendering:geometricPrecision;text-rendering:geometricPrecision"
   viewBox="0 0 150.66524 150.66524"
   id="svg3336"
   version="1.1"
   inkscape:version="0.91 r13725"
   sodipodi:docname="chainring_both.svg"><metadata
     id="metadata3420"><rdf:RDF><cc:Work
         rdf:about=""><dc:format>image/svg+xml</dc:format><dc:type
           rdf:resource="http://purl.org/dc/dcmitype/StillImage" /><dc:title></dc:title></cc:Work></rdf:RDF></metadata><sodipodi:namedview
     pagecolor="#ffffff"
     bordercolor="#666666"
     borderopacity="1"
     objecttolerance="10"
     gridtolerance="10"
     guidetolerance="10"
     inkscape:pageopacity="0"
     inkscape:pageshadow="2"
     inkscape:window-width="1920"
     inkscape:window-height="1017"
     id="namedview3418"
     showgrid="false"
     inkscape:zoom="1.4985937"
     inkscape:cx="311.9615"
     inkscape:cy="308.29136"
     inkscape:window-x="-8"
     inkscape:window-y="-8"
     inkscape:window-maximized="1"
     inkscape:current-layer="Layer_x0020_1"
     fit-margin-top="0"
     fit-margin-left="0"
     fit-margin-right="0"
     fit-margin-bottom="0" /><defs
     id="defs3338"><style
       type="text/css"
       id="style3340"><![CDATA[
    .str0 {stroke:#1F1A17;stroke-width:0.0717197;stroke-linecap:round;stroke-linejoin:round}
    .fil0 {fill:none}
   ]]></style></defs><g
     id="Layer_x0020_1"
     transform="translate(11.256115,-6.5576968)"><metadata
       id="CorelCorpID_0Corel-Layer" /><g
       id="g3424"
       transform="matrix(0.8,0,0,0.8,3.8108184,21.624629)"><g
         id="_99789808"><line
           y2="0.035859801"
           x2="77.685204"
           y1="0.035859801"
           x1="72.979103"
           class="fil0 str0"
           id="_97670440"
           style="fill:none;stroke:#1f1a17;stroke-width:0.0717197;stroke-linecap:round;stroke-linejoin:round" /><line
           y2="0.771222"
           x2="64.574303"
           y1="1.58837"
           x1="59.939701"
           class="fil0 str0"
           id="_99790240"
           style="fill:none;stroke:#1f1a17;stroke-width:0.0717197;stroke-linecap:round;stroke-linejoin:round" /><line
           y2="3.77196"
           x2="51.790401"
           y1="5.3815198"
           x1="47.368198"
           class="fil0 str0"
           id="_99792376"
           style="fill:none;stroke:#1f1a17;stroke-width:0.0717197;stroke-linecap:round;stroke-linejoin:round" /><line
           y2="8.9470701"
           x2="39.721802"
           y1="11.3002"
           x1="35.646198"
           class="fil0 str0"
           id="_99792664"
           style="fill:none;stroke:#1f1a17;stroke-width:0.0717197;stroke-linecap:round;stroke-linejoin:round" /><line
           y2="16.139299"
           x2="28.7351"
           y1="19.164301"
           x1="25.1301"
           class="fil0 str0"
           id="_99792952"
           style="fill:none;stroke:#1f1a17;stroke-width:0.0717197;stroke-linecap:round;stroke-linejoin:round" /><line
           y2="25.129999"
           x2="19.164301"
           y1="28.7351"
           x1="16.1394"
           class="fil0 str0"
           id="_98545880"
           style="fill:none;stroke:#1f1a17;stroke-width:0.0717197;stroke-linecap:round;stroke-linejoin:round" /><line
           y2="35.646198"
           x2="11.3002"
           y1="39.721802"
           x1="8.9471703"
           class="fil0 str0"
           id="_99791616"
           style="fill:none;stroke:#1f1a17;stroke-width:0.0717197;stroke-linecap:round;stroke-linejoin:round" /><line
           y2="47.368099"
           x2="5.3816099"
           y1="51.790298"
           x1="3.77196"
           class="fil0 str0"
           id="_99791904"
           style="fill:none;stroke:#1f1a17;stroke-width:0.0717197;stroke-linecap:round;stroke-linejoin:round" /><line
           y2="59.939701"
           x2="1.58837"
           y1="64.574303"
           x1="0.771222"
           class="fil0 str0"
           id="_99792192"
           style="fill:none;stroke:#1f1a17;stroke-width:0.0717197;stroke-linecap:round;stroke-linejoin:round" /><line
           y2="72.978996"
           x2="0.035859801"
           y1="77.685097"
           x1="0.035859801"
           class="fil0 str0"
           id="_99214352"
           style="fill:none;stroke:#1f1a17;stroke-width:0.0717197;stroke-linecap:round;stroke-linejoin:round" /><line
           y2="86.089798"
           x2="0.771222"
           y1="90.724403"
           x1="1.58837"
           class="fil0 str0"
           id="_99214640"
           style="fill:none;stroke:#1f1a17;stroke-width:0.0717197;stroke-linecap:round;stroke-linejoin:round" /><line
           y2="98.873703"
           x2="3.77196"
           y1="103.296"
           x1="5.3815198"
           class="fil0 str0"
           id="_99214928"
           style="fill:none;stroke:#1f1a17;stroke-width:0.0717197;stroke-linecap:round;stroke-linejoin:round" /><line
           y2="110.942"
           x2="8.9470701"
           y1="115.018"
           x1="11.3002"
           class="fil0 str0"
           id="_99795472"
           style="fill:none;stroke:#1f1a17;stroke-width:0.0717197;stroke-linecap:round;stroke-linejoin:round" /><line
           y2="121.929"
           x2="16.139299"
           y1="125.534"
           x1="19.164301"
           class="fil0 str0"
           id="_99795760"
           style="fill:none;stroke:#1f1a17;stroke-width:0.0717197;stroke-linecap:round;stroke-linejoin:round" /><line
           y2="131.5"
           x2="25.129999"
           y1="134.52499"
           x1="28.7351"
           class="fil0 str0"
           id="_99795952"
           style="fill:none;stroke:#1f1a17;stroke-width:0.0717197;stroke-linecap:round;stroke-linejoin:round" /><line
           y2="139.364"
           x2="35.646198"
           y1="141.717"
           x1="39.721802"
           class="fil0 str0"
           id="_99796240"
           style="fill:none;stroke:#1f1a17;stroke-width:0.0717197;stroke-linecap:round;stroke-linejoin:round" /><line
           y2="145.283"
           x2="47.368099"
           y1="146.892"
           x1="51.790298"
           class="fil0 str0"
           id="_99791352"
           style="fill:none;stroke:#1f1a17;stroke-width:0.0717197;stroke-linecap:round;stroke-linejoin:round" /><line
           y2="149.076"
           x2="59.939701"
           y1="149.89301"
           x1="64.574303"
           class="fil0 str0"
           id="_98546000"
           style="fill:none;stroke:#1f1a17;stroke-width:0.0717197;stroke-linecap:round;stroke-linejoin:round" /><line
           y2="150.62801"
           x2="77.685097"
           y1="150.62801"
           x1="72.979103"
           class="fil0 str0"
           id="_98492864"
           style="fill:none;stroke:#1f1a17;stroke-width:0.0717197;stroke-linecap:round;stroke-linejoin:round" /><line
           y2="149.076"
           x2="90.724403"
           y1="149.89301"
           x1="86.089798"
           class="fil0 str0"
           id="_97837704"
           style="fill:none;stroke:#1f1a17;stroke-width:0.0717197;stroke-linecap:round;stroke-linejoin:round" /><line
           y2="145.283"
           x2="103.296"
           y1="146.892"
           x1="98.873802"
           class="fil0 str0"
           id="_99792472"
           style="fill:none;stroke:#1f1a17;stroke-width:0.0717197;stroke-linecap:round;stroke-linejoin:round" /><line
           y2="139.364"
           x2="115.018"
           y1="141.717"
           x1="110.942"
           class="fil0 str0"
           id="_99792760"
           style="fill:none;stroke:#1f1a17;stroke-width:0.0717197;stroke-linecap:round;stroke-linejoin:round" /><line
           y2="131.5"
           x2="125.534"
           y1="134.52499"
           x1="121.929"
           class="fil0 str0"
           id="_99793048"
           style="fill:none;stroke:#1f1a17;stroke-width:0.0717197;stroke-linecap:round;stroke-linejoin:round" /><line
           y2="121.929"
           x2="134.52499"
           y1="125.534"
           x1="131.5"
           class="fil0 str0"
           id="_99790856"
           style="fill:none;stroke:#1f1a17;stroke-width:0.0717197;stroke-linecap:round;stroke-linejoin:round" /><line
           y2="110.942"
           x2="141.717"
           y1="115.018"
           x1="139.364"
           class="fil0 str0"
           id="_99791520"
           style="fill:none;stroke:#1f1a17;stroke-width:0.0717197;stroke-linecap:round;stroke-linejoin:round" /><line
           y2="98.873802"
           x2="146.892"
           y1="103.296"
           x1="145.283"
           class="fil0 str0"
           id="_99791808"
           style="fill:none;stroke:#1f1a17;stroke-width:0.0717197;stroke-linecap:round;stroke-linejoin:round" /><line
           y2="86.089798"
           x2="149.89301"
           y1="90.724403"
           x1="149.076"
           class="fil0 str0"
           id="_99792096"
           style="fill:none;stroke:#1f1a17;stroke-width:0.0717197;stroke-linecap:round;stroke-linejoin:round" /><line
           y2="72.979103"
           x2="150.62801"
           y1="77.685097"
           x1="150.62801"
           class="fil0 str0"
           id="_99214256"
           style="fill:none;stroke:#1f1a17;stroke-width:0.0717197;stroke-linecap:round;stroke-linejoin:round" /><line
           y2="59.939701"
           x2="149.076"
           y1="64.574303"
           x1="149.89301"
           class="fil0 str0"
           id="_99214544"
           style="fill:none;stroke:#1f1a17;stroke-width:0.0717197;stroke-linecap:round;stroke-linejoin:round" /><line
           y2="47.368198"
           x2="145.283"
           y1="51.790298"
           x1="146.892"
           class="fil0 str0"
           id="_99214832"
           style="fill:none;stroke:#1f1a17;stroke-width:0.0717197;stroke-linecap:round;stroke-linejoin:round" /><line
           y2="35.646198"
           x2="139.364"
           y1="39.721802"
           x1="141.717"
           class="fil0 str0"
           id="_99215120"
           style="fill:none;stroke:#1f1a17;stroke-width:0.0717197;stroke-linecap:round;stroke-linejoin:round" /><line
           y2="25.1301"
           x2="131.5"
           y1="28.7351"
           x1="134.52499"
           class="fil0 str0"
           id="_99795664"
           style="fill:none;stroke:#1f1a17;stroke-width:0.0717197;stroke-linecap:round;stroke-linejoin:round" /><line
           y2="16.1394"
           x2="121.929"
           y1="19.164301"
           x1="125.534"
           class="fil0 str0"
           id="_99796048"
           style="fill:none;stroke:#1f1a17;stroke-width:0.0717197;stroke-linecap:round;stroke-linejoin:round" /><line
           y2="8.9471703"
           x2="110.942"
           y1="11.3002"
           x1="115.018"
           class="fil0 str0"
           id="_99796336"
           style="fill:none;stroke:#1f1a17;stroke-width:0.0717197;stroke-linecap:round;stroke-linejoin:round" /><line
           y2="3.77196"
           x2="98.873802"
           y1="5.3815198"
           x1="103.296"
           class="fil0 str0"
           id="_99792120"
           style="fill:none;stroke:#1f1a17;stroke-width:0.0717197;stroke-linecap:round;stroke-linejoin:round" /><line
           y2="0.771222"
           x2="86.089798"
           y1="1.58837"
           x1="90.724403"
           class="fil0 str0"
           id="_99790048"
           style="fill:none;stroke:#1f1a17;stroke-width:0.0717197;stroke-linecap:round;stroke-linejoin:round" /><path
           d="m 72.9791,0.0359539 c -0.07031,6.45091 -7.24434,7.6516 -8.40466,0.735174"
           class="fil0 str0"
           id="_99791144"
           inkscape:connector-curvature="0"
           style="fill:none;stroke:#1f1a17;stroke-width:0.0717197;stroke-linecap:round;stroke-linejoin:round" /><path
           d="m 59.9398,1.58847 c 1.05085,6.36517 -5.80562,8.79338 -8.1494,2.1835"
           class="fil0 str0"
           id="_97837608"
           inkscape:connector-curvature="0"
           style="fill:none;stroke:#1f1a17;stroke-width:0.0717197;stroke-linecap:round;stroke-linejoin:round" /><path
           d="m 47.3682,5.38161 c 2.1402,6.08601 -4.19042,9.66794 -7.64633,3.56546"
           class="fil0 str0"
           id="_99792928"
           inkscape:connector-curvature="0"
           style="fill:none;stroke:#1f1a17;stroke-width:0.0717197;stroke-linecap:round;stroke-linejoin:round" /><path
           d="m 35.6463,11.3002 c 3.16451,5.6219 -2.44797,10.2487 -6.91106,4.8391"
           class="fil0 str0"
           id="_99791496"
           inkscape:connector-curvature="0"
           style="fill:none;stroke:#1f1a17;stroke-width:0.0717197;stroke-linecap:round;stroke-linejoin:round" /><path
           d="m 25.1301,19.1643 c 4.09273,4.98706 -0.631076,10.5181 -5.96572,5.96572"
           class="fil0 str0"
           id="_99792072"
           inkscape:connector-curvature="0"
           style="fill:none;stroke:#1f1a17;stroke-width:0.0717197;stroke-linecap:round;stroke-linejoin:round" /><path
           d="m 16.1394,28.7351 c 4.89651,4.20059 1.20493,10.4679 -4.83919,6.91097"
           class="fil0 str0"
           id="_99214520"
           inkscape:connector-curvature="0"
           style="fill:none;stroke:#1f1a17;stroke-width:0.0717197;stroke-linecap:round;stroke-linejoin:round" /><path
           d="m 8.94717,39.7218 c 5.55159,3.2864 3.00441,10.0996 -3.56556,7.64624"
           class="fil0 str0"
           id="_99215096"
           inkscape:connector-curvature="0"
           style="fill:none;stroke:#1f1a17;stroke-width:0.0717197;stroke-linecap:round;stroke-linejoin:round" /><path
           d="m 3.77206,51.7903 c 6.03791,2.27253 4.71251,9.42455 -2.18368,8.14931"
           class="fil0 str0"
           id="_99795928"
           inkscape:connector-curvature="0"
           style="fill:none;stroke:#1f1a17;stroke-width:0.0717197;stroke-linecap:round;stroke-linejoin:round" /><path
           d="m 0.771222,64.5742 c 6.34079,1.18959 6.27745,8.46301 -0.735362,8.40475"
           class="fil0 str0"
           id="_99796528"
           inkscape:connector-curvature="0"
           style="fill:none;stroke:#1f1a17;stroke-width:0.0717197;stroke-linecap:round;stroke-linejoin:round" /><path
           d="m 0.0359539,77.6851 c 6.45091,0.07031 7.6516,7.24434 0.735174,8.40466"
           class="fil0 str0"
           id="_99790000"
           inkscape:connector-curvature="0"
           style="fill:none;stroke:#1f1a17;stroke-width:0.0717197;stroke-linecap:round;stroke-linejoin:round" /><path
           d="m 1.58847,90.7243 c 6.36517,-1.05085 8.79338,5.80562 2.1835,8.1494"
           class="fil0 str0"
           id="_97667472"
           inkscape:connector-curvature="0"
           style="fill:none;stroke:#1f1a17;stroke-width:0.0717197;stroke-linecap:round;stroke-linejoin:round" /><path
           d="m 5.38161,103.296 c 6.08601,-2.1402 9.66794,4.19042 3.56546,7.64633"
           class="fil0 str0"
           id="_100560400"
           inkscape:connector-curvature="0"
           style="fill:none;stroke:#1f1a17;stroke-width:0.0717197;stroke-linecap:round;stroke-linejoin:round" /><path
           d="m 11.3002,115.018 c 5.6219,-3.16451 10.2487,2.44797 4.8391,6.91106"
           class="fil0 str0"
           id="_97668032"
           inkscape:connector-curvature="0"
           style="fill:none;stroke:#1f1a17;stroke-width:0.0717197;stroke-linecap:round;stroke-linejoin:round" /><path
           d="m 19.1643,125.534 c 4.98706,-4.09273 10.5181,0.63108 5.96572,5.96572"
           class="fil0 str0"
           id="_97668248"
           inkscape:connector-curvature="0"
           style="fill:none;stroke:#1f1a17;stroke-width:0.0717197;stroke-linecap:round;stroke-linejoin:round" /><path
           d="m 28.7351,134.525 c 4.20059,-4.89651 10.4679,-1.20493 6.91097,4.83919"
           class="fil0 str0"
           id="_99906792"
           inkscape:connector-curvature="0"
           style="fill:none;stroke:#1f1a17;stroke-width:0.0717197;stroke-linecap:round;stroke-linejoin:round" /><path
           d="m 39.7218,141.717 c 3.2864,-5.55159 10.0996,-3.00441 7.64624,3.56556"
           class="fil0 str0"
           id="_99907032"
           inkscape:connector-curvature="0"
           style="fill:none;stroke:#1f1a17;stroke-width:0.0717197;stroke-linecap:round;stroke-linejoin:round" /><path
           d="m 51.7903,146.892 c 2.27253,-6.03791 9.42455,-4.71251 8.14931,2.18368"
           class="fil0 str0"
           id="_99907280"
           inkscape:connector-curvature="0"
           style="fill:none;stroke:#1f1a17;stroke-width:0.0717197;stroke-linecap:round;stroke-linejoin:round" /><path
           d="m 64.5742,149.893 c 1.18959,-6.34079 8.46301,-6.27745 8.40475,0.73536"
           class="fil0 str0"
           id="_99907592"
           inkscape:connector-curvature="0"
           style="fill:none;stroke:#1f1a17;stroke-width:0.0717197;stroke-linecap:round;stroke-linejoin:round" /><path
           d="m 77.6851,150.628 c -0.08029,-6.45882 7.24444,-7.6517 8.40475,-0.73527"
           class="fil0 str0"
           id="_100536872"
           inkscape:connector-curvature="0"
           style="fill:none;stroke:#1f1a17;stroke-width:0.0717197;stroke-linecap:round;stroke-linejoin:round" /><path
           d="m 90.7243,149.076 c -1.2006,-6.34672 5.80572,-8.79347 8.1495,-2.18359"
           class="fil0 str0"
           id="_98546240"
           inkscape:connector-curvature="0"
           style="fill:none;stroke:#1f1a17;stroke-width:0.0717197;stroke-linecap:round;stroke-linejoin:round" /><path
           d="m 103.296,145.283 c -2.28449,-6.04186 4.19052,-9.66804 7.64643,-3.56556"
           class="fil0 str0"
           id="_99792880"
           inkscape:connector-curvature="0"
           style="fill:none;stroke:#1f1a17;stroke-width:0.0717197;stroke-linecap:round;stroke-linejoin:round" /><path
           d="m 115.018,139.364 c -3.29892,-5.55338 2.44807,-10.2489 6.91116,-4.83919"
           class="fil0 str0"
           id="_99791448"
           inkscape:connector-curvature="0"
           style="fill:none;stroke:#1f1a17;stroke-width:0.0717197;stroke-linecap:round;stroke-linejoin:round" /><path
           d="m 125.534,131.5 c -4.21311,-4.89614 0.63117,-10.5182 5.96581,-5.96572"
           class="fil0 str0"
           id="_99792024"
           inkscape:connector-curvature="0"
           style="fill:none;stroke:#1f1a17;stroke-width:0.0717197;stroke-linecap:round;stroke-linejoin:round" /><path
           d="m 134.525,121.929 c -4.99929,-4.09009 -1.20493,-10.468 4.83919,-6.91106"
           class="fil0 str0"
           id="_99214472"
           inkscape:connector-curvature="0"
           style="fill:none;stroke:#1f1a17;stroke-width:0.0717197;stroke-linecap:round;stroke-linejoin:round" /><path
           d="m 141.717,110.942 c -5.63357,-3.1599 -3.00432,-10.0998 3.56565,-7.64643"
           class="fil0 str0"
           id="_99215048"
           inkscape:connector-curvature="0"
           style="fill:none;stroke:#1f1a17;stroke-width:0.0717197;stroke-linecap:round;stroke-linejoin:round" /><path
           d="m 146.892,98.8738 c -6.09674,-2.13361 -4.7126,-9.42464 2.18359,-8.1494"
           class="fil0 str0"
           id="_99795880"
           inkscape:connector-curvature="0"
           style="fill:none;stroke:#1f1a17;stroke-width:0.0717197;stroke-linecap:round;stroke-linejoin:round" /><path
           d="m 149.893,86.0899 c -6.37458,-1.04257 -6.27745,-8.46311 0.73536,-8.40485"
           class="fil0 str0"
           id="_99796456"
           inkscape:connector-curvature="0"
           style="fill:none;stroke:#1f1a17;stroke-width:0.0717197;stroke-linecap:round;stroke-linejoin:round" /><path
           d="m 150.628,72.9791 c -6.45882,0.08029 -7.6517,-7.24444 -0.73527,-8.40475"
           class="fil0 str0"
           id="_98756584"
           inkscape:connector-curvature="0"
           style="fill:none;stroke:#1f1a17;stroke-width:0.0717197;stroke-linecap:round;stroke-linejoin:round" /><path
           d="m 149.076,59.9398 c -6.34672,1.2006 -8.79347,-5.80572 -2.18359,-8.1495"
           class="fil0 str0"
           id="_97667760"
           inkscape:connector-curvature="0"
           style="fill:none;stroke:#1f1a17;stroke-width:0.0717197;stroke-linecap:round;stroke-linejoin:round" /><path
           d="m 145.283,47.3682 c -6.04186,2.28449 -9.66804,-4.19052 -3.56556,-7.64643"
           class="fil0 str0"
           id="_84813432"
           inkscape:connector-curvature="0"
           style="fill:none;stroke:#1f1a17;stroke-width:0.0717197;stroke-linecap:round;stroke-linejoin:round" /><path
           d="m 139.364,35.6463 c -5.55338,3.29892 -10.2489,-2.44807 -4.83919,-6.91116"
           class="fil0 str0"
           id="_97668056"
           inkscape:connector-curvature="0"
           style="fill:none;stroke:#1f1a17;stroke-width:0.0717197;stroke-linecap:round;stroke-linejoin:round" /><path
           d="m 131.5,25.1301 c -4.89614,4.21311 -10.5182,-0.631171 -5.96572,-5.96581"
           class="fil0 str0"
           id="_97668368"
           inkscape:connector-curvature="0"
           style="fill:none;stroke:#1f1a17;stroke-width:0.0717197;stroke-linecap:round;stroke-linejoin:round" /><path
           d="m 121.929,16.1394 c -4.09009,4.99929 -10.468,1.20493 -6.91106,-4.83919"
           class="fil0 str0"
           id="_99906840"
           inkscape:connector-curvature="0"
           style="fill:none;stroke:#1f1a17;stroke-width:0.0717197;stroke-linecap:round;stroke-linejoin:round" /><path
           d="m 110.942,8.94717 c -3.1599,5.63357 -10.0998,3.00432 -7.64643,-3.56565"
           class="fil0 str0"
           id="_99907056"
           inkscape:connector-curvature="0"
           style="fill:none;stroke:#1f1a17;stroke-width:0.0717197;stroke-linecap:round;stroke-linejoin:round" /><path
           d="M 98.8738,3.77196 C 96.74019,9.8687 89.44916,8.48456 90.7244,1.58837"
           class="fil0 str0"
           id="_99907400"
           inkscape:connector-curvature="0"
           style="fill:none;stroke:#1f1a17;stroke-width:0.0717197;stroke-linecap:round;stroke-linejoin:round" /><path
           d="M 86.0899,0.771222 C 85.04733,7.145802 77.62679,7.048672 77.68505,0.03586"
           class="fil0 str0"
           id="_99907672"
           inkscape:connector-curvature="0"
           style="fill:none;stroke:#1f1a17;stroke-width:0.0717197;stroke-linecap:round;stroke-linejoin:round" /><circle
           r="66.067902"
           cy="75.3321"
           cx="75.3321"
           class="fil0 str0"
           id="_99790472"
           style="fill:none;stroke:#1f1a17;stroke-width:0.0717197;stroke-linecap:round;stroke-linejoin:round" /></g><path
         transform="scale(0.26562838,0.26562838)"
         inkscape:connector-curvature="0"
         id="path3422"
         d="m 274.81996,562.56931 c -0.58882,-5.63349 -3.348,-10.99444 -6.96815,-13.53878 -2.36079,-1.65923 -3.6431,-2.04882 -7.3363,-2.22891 -3.99648,-0.19489 -4.8489,-7e-5 -7.96471,1.82034 -4.04931,2.36581 -7.70571,7.29854 -8.91891,12.03222 l -0.79898,3.11743 -8.07686,-1.41006 -8.07686,-1.41006 -0.37641,-6.38204 c -0.31308,-5.30815 -0.67843,-6.8974 -2.17128,-9.44475 -6.39708,-10.9158 -21.17411,-8.68123 -27.97299,4.23004 l -1.60216,3.04254 -7.62746,-2.80978 c -6.23146,-2.29552 -7.5953,-3.03557 -7.45178,-4.04348 0.0966,-0.67854 0.47632,-2.9466 0.84378,-5.04014 1.05479,-6.00958 -0.594,-11.67496 -4.46316,-15.33577 -6.09605,-5.76777 -16.4078,-4.06129 -23.49269,3.88778 l -3.28169,3.68197 -7.03449,-4.10352 -7.03448,-4.10351 1.38206,-3.12245 c 0.87539,-1.97773 1.49154,-5.07957 1.68068,-8.4608 0.26302,-4.70219 0.10679,-5.69618 -1.311,-8.34116 -1.05107,-1.96085 -2.71466,-3.68723 -4.7943,-4.97525 -2.71123,-1.67919 -3.84442,-1.96872 -7.62205,-1.94742 -5.06951,0.0286 -8.9731,1.58079 -13.30906,5.29221 -1.47642,1.26377 -2.88591,2.29776 -3.13219,2.29776 -0.60159,0 -12.352265,-9.9911 -12.352265,-10.50261 0,-0.22145 0.426706,-0.8767 0.948235,-1.45611 1.749941,-1.94418 4.26963,-7.69821 4.72573,-10.79183 1.99807,-13.55246 -13.597447,-20.781 -26.483889,-12.27531 l -2.459379,1.62331 -5.459252,-6.38245 -5.459245,-6.38245 2.6911,-2.77386 c 7.49427,-7.72471 8.097302,-17.63114 1.421112,-23.3457 -4.703115,-4.02569 -11.457593,-4.88139 -18.712645,-2.37063 -3.38854,1.17267 -4.187243,1.258 -4.684893,0.50047 -2.1245,-3.23394 -7.250472,-12.54527 -7.250472,-13.17049 0,-0.41521 0.292631,-0.75493 0.650291,-0.75493 0.357659,0 2.435211,-1.74654 4.616781,-3.88121 3.218572,-3.14937 4.17747,-4.60695 5.085401,-7.73012 1.639702,-5.64038 0.580212,-9.94633 -3.450768,-14.0245 -3.863029,-3.90826 -9.65151,-5.27661 -17.644389,-4.17098 l -3.736116,0.51679 -2.603161,-7.18209 c -1.431739,-3.95015 -2.689432,-7.37786 -2.794874,-7.61713 -0.105443,-0.23927 1.500974,-1.29146 3.569815,-2.3382 6.497375,-3.28737 10.968682,-9.56927 10.968682,-15.41032 0,-2.80892 -3.107243,-8.65246 -5.61997,-10.56901 -3.274737,-2.49777 -7.568328,-3.79937 -12.821958,-3.88695 L 6.2899564,340.818 5.149195,334.12916 c -0.6274187,-3.67886 -1.287282,-7.33579 -1.4663629,-8.12651 -0.2825436,-1.24756 0.1451287,-1.57493 3.2340274,-2.47551 11.4649585,-3.34266 16.6847445,-12.40755 12.3023745,-21.36479 -2.282996,-4.66627 -7.062489,-8.10481 -12.7553085,-9.1766 -2.1972193,-0.41366 -4.370296,-0.85372 -4.8290594,-0.9779 -0.6102697,-0.16519 -0.83411536,-2.4448 -0.83411536,-8.49452 l 0,-8.26874 3.62001536,-0.37362 c 14.7729399,-1.5247 21.1775229,-14.7007 12.1376599,-24.97053 -2.622787,-2.97964 -9.3728499,-6.87092 -11.9207446,-6.87206 -1.4198844,-6.4e-4 -1.4319258,0.56332 0.1769564,-8.28791 0.7284481,-4.00754 1.3244512,-7.53585 1.3244512,-7.84069 0,-0.30483 2.2923432,-0.55424 5.094096,-0.55424 6.430349,0 9.545982,-0.93449 13.014682,-3.90356 3.35848,-2.87474 4.57916,-5.61798 4.57916,-10.29077 0,-6.44656 -4.151352,-12.52785 -10.862053,-15.91175 -1.549592,-0.78138 -2.892779,-1.48416 -2.98486,-1.56171 -0.122572,-0.10323 5.068282,-14.84532 5.447839,-15.47193 0.03186,-0.0526 2.118407,0.33177 4.63678,0.85413 11.410243,2.36674 20.444601,-3.59164 20.444601,-13.48372 0,-4.88878 -3.202915,-10.95984 -7.72809,-14.64842 l -3.390689,-2.76385 3.88462,-6.61826 c 2.136541,-3.64004 3.962633,-6.84078 4.057982,-7.11274 0.09535,-0.27196 1.975051,0.24641 4.177115,1.15192 9.579032,3.93903 18.765656,1.23014 21.988795,-6.48392 2.323486,-5.56088 0.879612,-12.40747 -3.922467,-18.59968 l -2.900457,-3.74009 3.141678,-3.68165 c 1.727922,-2.02491 4.046262,-4.779075 5.151872,-6.120366 l 2.010191,-2.438719 3.857217,2.322697 c 8.091459,4.872418 15.466066,4.670478 20.703483,-0.566938 5.088046,-5.088044 5.625086,-12.243165 1.531036,-20.398244 -1.199245,-2.388813 -2.180732,-4.521453 -2.181079,-4.739203 -3.53e-4,-0.217745 2.685205,-2.669196 5.967909,-5.447666 l 5.96855,-5.051766 3.0399,2.680149 c 4.90018,4.320289 7.68815,5.490045 13.15602,5.51992 4.25573,0.02322 5.09027,-0.193314 7.6374,-1.981885 6.05776,-4.253688 8.00916,-13.245739 4.70508,-21.680893 -0.79069,-2.018559 -1.21269,-3.74812 -0.93778,-3.843469 0.2749,-0.09535 3.5006,-1.934654 7.16821,-4.087347 6.60814,-3.878615 6.67687,-3.901169 7.60566,-2.495808 1.85111,2.800905 6.45628,7.223031 8.74753,8.399848 7.50467,3.854487 15.57928,1.270104 19.53117,-6.251198 1.11223,-2.116825 1.4416,-3.934931 1.46209,-8.070687 0.0145,-2.936086 -0.20494,-6.239183 -0.48776,-7.340215 l -0.5142,-2.001877 7.18712,-2.589379 c 3.95293,-1.424158 7.4989,-2.70808 7.87994,-2.85316 0.38104,-0.145079 1.37302,1.136306 2.2044,2.847523 2.21301,4.555046 4.6303,7.4577 7.71707,9.266531 6.07443,3.559598 12.17141,2.765032 17.16999,-2.237618 3.64318,-3.646148 5.2467,-8.097394 5.2467,-14.564395 0,-2.3189578 0.24941,-4.216286 0.55424,-4.216286 0.30484,0 3.83315,-0.5960031 7.84069,-1.3244512 8.76535,-1.5932718 8.28738,-1.5720007 8.28738,-0.3688114 0,2.2973824 3.01822,8.7491246 5.25212,11.2269526 9.39324,10.418882 24.45901,3.952182 26.48629,-11.3687438 l 0.46355,-3.50328446 8.1838,0 c 8.89369,0 8.99387,0.0442704 8.99387,3.97443346 0,5.5287198 4.07661,11.9924138 9.11969,14.4597618 3.0703,1.502155 4.17376,1.707823 7.3848,1.376413 6.47579,-0.66836 12.44695,-6.225726 14.58257,-13.5720086 0.93228,-3.2068977 1.25597,-3.6400971 2.50811,-3.3565183 0.79072,0.1790809 4.44049,0.837686 8.1106,1.4635669 l 6.67292,1.1379654 0,5.4797046 c 0,4.780028 0.25691,5.982061 2.0121,9.414051 6.13385,11.993786 21.83776,10.044657 28.42662,-3.528239 0.75719,-1.559796 1.425,-2.830214 1.48401,-2.82315 0.059,0.0071 3.56054,1.283259 7.78116,2.835992 l 7.67386,2.82315 -0.78041,3.002815 c -2.36768,9.110164 0.4594,17.288233 7.15765,20.705427 6.46716,3.299302 16.2342,0.207246 21.10854,-6.682556 1.03129,-1.457724 2.13029,-2.656818 2.4422,-2.664655 0.64862,-0.01629 13.77966,7.336467 13.77966,7.715963 0,0.137059 -0.78418,2.582704 -1.74264,5.434763 -1.36141,4.051136 -1.66182,5.97228 -1.37321,8.781702 1.36687,13.305749 16.55309,17.407668 27.40702,7.402858 l 3.03702,-2.799423 6.33157,5.446798 6.33158,5.446797 -1.98536,2.740703 c -4.23714,5.849197 -5.04934,12.990159 -2.11609,18.605016 1.51156,2.893473 2.53796,3.914897 5.50516,5.47849 3.25668,1.716139 4.14731,1.890509 8.31823,1.628519 4.49505,-0.28234 10.87766,-2.671337 12.00342,-4.492851 0.23114,-0.373991 0.68243,-0.679984 1.00287,-0.679984 0.67534,0 10.68259,11.644375 10.68259,12.430205 0,0.28915 -1.02709,1.58937 -2.28243,2.88938 -3.72825,3.86095 -5.72508,8.31238 -5.72508,12.76264 0,4.87596 0.80014,6.98604 3.83277,10.10746 4.5763,4.71031 12.91999,5.77434 20.3398,2.59384 l 3.11046,-1.3333 4.1347,7.07388 4.13469,7.07387 -1.92802,1.35798 c -2.8614,2.01539 -6.76511,6.18748 -8.07086,8.62573 -0.77164,1.44091 -1.15742,3.7173 -1.17346,6.9244 -0.0213,4.25661 0.1957,5.09055 1.98936,7.64492 1.26688,1.80418 3.36969,3.58119 5.67199,4.79318 3.42361,1.80229 4.02317,1.90358 9.33069,1.57638 3.11959,-0.19232 6.22715,-0.44546 6.90569,-0.56253 1.01678,-0.17543 1.7294,1.13279 4.05294,7.44041 l 2.81923,7.65327 -3.14512,1.45716 c -9.32408,4.31991 -13.62058,13.4296 -10.04575,21.29957 2.50393,5.51239 7.6474,8.3716 16.07506,8.93599 l 5.65173,0.3785 1.42679,8.17433 c 1.13551,6.50548 1.24658,8.17433 0.54405,8.17433 -0.48551,0 -2.31958,0.48774 -4.07571,1.08388 -7.80989,2.65112 -12.42815,8.17219 -12.41828,14.84589 0.0124,8.41028 6.7875,14.899 16.61563,15.91335 l 3.62002,0.37362 0,8.21756 0,8.21756 -2.50235,0.40886 c -5.48247,0.89577 -6.60758,1.19957 -9.17527,2.47752 -5.74346,2.85854 -8.34475,6.91445 -8.33489,12.9957 0.0119,7.36005 5.06473,13.24895 13.7047,15.97246 l 3.39588,1.07046 -1.39876,7.98628 -1.39877,7.98629 -5.65325,0.13037 c -4.32963,0.0999 -6.3885,0.48645 -8.79356,1.65119 -7.64154,3.70068 -10.50017,11.54281 -6.96726,19.11339 1.72444,3.69528 5.61812,7.5556 9.74386,9.6604 1.48458,0.75737 2.69924,1.6354 2.69924,1.95117 0,0.47878 -3.50638,10.43769 -4.98841,14.1682 -0.39235,0.98761 -0.72673,0.99865 -3.5611,0.1176 -4.65833,-1.44801 -11.27317,-0.8394 -15.0717,1.38668 -6.54753,3.83711 -8.63932,12.14819 -4.90003,19.46876 1.61173,3.15534 5.42676,7.25811 8.1838,8.80103 1.09389,0.61216 0.83651,1.31522 -2.94342,8.04024 l -4.14211,7.36942 -3.80494,-1.75068 c -5.01846,-2.30904 -11.853,-2.49181 -15.8162,-0.42295 -8.7706,4.57839 -10.04047,15.33301 -2.92111,24.73899 2.83082,3.74005 3.18153,4.52369 2.44562,5.46476 -0.4725,0.60423 -2.75551,3.3924 -5.07335,6.19594 l -4.21425,5.09734 -3.76583,-2.26766 c -2.07121,-1.24722 -4.82916,-2.56306 -6.12878,-2.92411 -14.99115,-4.16466 -24.34865,10.63223 -15.75199,24.9084 l 2.22875,3.70122 -5.09734,4.21425 c -2.80354,2.31784 -5.60221,4.60957 -6.21927,5.09272 -0.97198,0.76104 -1.608,0.48256 -4.75838,-2.08346 -4.91505,-4.00337 -8.69098,-5.37487 -13.78363,-5.0065 -5.01571,0.3628 -8.88884,2.86407 -11.16825,7.21243 -1.37126,2.61592 -1.54363,3.73364 -1.33784,8.6748 0.17325,4.16003 0.6202,6.41376 1.67669,8.45467 l 1.44047,2.78268 -7.40734,4.16344 c -6.85954,3.85553 -7.45854,4.07197 -8.09951,2.92662 -1.62276,-2.89973 -6.39643,-7.29958 -9.48933,-8.74626 -8.36481,-3.91257 -17.31725,0.21419 -19.99013,9.21475 -1.26325,4.25381 -1.29169,6.59447 -0.13439,11.05602 0.79565,3.06729 0.7771,3.49802 -0.16682,3.87336 -3.68482,1.46518 -13.66287,4.97768 -14.14026,4.97768 -0.31577,0 -1.22075,-1.2762 -2.01107,-2.836 -4.77399,-9.42206 -13.83396,-13.66578 -21.13788,-9.90103 -6.04089,3.11372 -8.94778,8.29728 -9.19003,16.38767 l -0.15927,5.31888 -8.04554,1.40915 -8.04554,1.40914 -0.43781,-2.05698 c -1.51642,-7.12458 -7.21711,-13.77513 -12.83933,-14.97863 -5.24995,-1.12382 -9.07659,0.0985 -13.19205,4.214 -3.51097,3.51096 -4.96517,6.73409 -5.96092,13.21188 l -0.38465,2.50235 -8.21586,0 -8.21585,0 -0.42804,-4.0953 z m 28.59784,-30.6244 c 35.60438,-2.99694 68.57358,-12.78056 99.18698,-29.43378 66.51587,-36.18361 113.638,-101.69299 126.3193,-175.60957 2.85279,-16.62835 3.36657,-23.25882 3.37086,-43.50253 0.004,-20.21462 -0.44354,-25.91207 -3.38309,-43.04035 C 512.36284,143.93028 438.86259,65.22594 343.46401,41.780467 307.86172,33.030727 270.50917,32.151519 235.02034,39.227907 155.25279,55.133367 88.455497,108.72704 55.507462,183.257 c -8.146897,18.42866 -15.512129,43.855 -18.280256,63.10731 -3.842332,26.7234 -3.513237,53.96303 0.969369,80.236 15.181027,88.97741 79.973215,164.44739 165.704355,193.01255 21.15168,7.04763 36.45068,10.12932 62.48215,12.58586 5.59131,0.52764 29.71504,0.36231 37.03472,-0.25381 z"
         style="fill:#cccccc" /></g><g
       transform="translate(-11.255604,6.5582074)"
       style="clip-rule:evenodd;fill-rule:evenodd;image-rendering:optimizeQuality;shape-rendering:geometricPrecision;text-rendering:geometricPrecision"
       id="g3507"><g
         id="_99789808-6"><line
           y2="0.035859801"
           x2="77.685204"
           y1="0.035859801"
           x1="72.979103"
           class="fil0 str0"
           id="_97670440-7"
           style="fill:none;stroke:#1f1a17;stroke-width:0.0717197;stroke-linecap:round;stroke-linejoin:round" /><line
           y2="0.771222"
           x2="64.574303"
           y1="1.58837"
           x1="59.939701"
           class="fil0 str0"
           id="_99790240-5"
           style="fill:none;stroke:#1f1a17;stroke-width:0.0717197;stroke-linecap:round;stroke-linejoin:round" /><line
           y2="3.77196"
           x2="51.790401"
           y1="5.3815198"
           x1="47.368198"
           class="fil0 str0"
           id="_99792376-3"
           style="fill:none;stroke:#1f1a17;stroke-width:0.0717197;stroke-linecap:round;stroke-linejoin:round" /><line
           y2="8.9470701"
           x2="39.721802"
           y1="11.3002"
           x1="35.646198"
           class="fil0 str0"
           id="_99792664-1"
           style="fill:none;stroke:#1f1a17;stroke-width:0.0717197;stroke-linecap:round;stroke-linejoin:round" /><line
           y2="16.139299"
           x2="28.7351"
           y1="19.164301"
           x1="25.1301"
           class="fil0 str0"
           id="_99792952-7"
           style="fill:none;stroke:#1f1a17;stroke-width:0.0717197;stroke-linecap:round;stroke-linejoin:round" /><line
           y2="25.129999"
           x2="19.164301"
           y1="28.7351"
           x1="16.1394"
           class="fil0 str0"
           id="_98545880-6"
           style="fill:none;stroke:#1f1a17;stroke-width:0.0717197;stroke-linecap:round;stroke-linejoin:round" /><line
           y2="35.646198"
           x2="11.3002"
           y1="39.721802"
           x1="8.9471703"
           class="fil0 str0"
           id="_99791616-5"
           style="fill:none;stroke:#1f1a17;stroke-width:0.0717197;stroke-linecap:round;stroke-linejoin:round" /><line
           y2="47.368099"
           x2="5.3816099"
           y1="51.790298"
           x1="3.77196"
           class="fil0 str0"
           id="_99791904-3"
           style="fill:none;stroke:#1f1a17;stroke-width:0.0717197;stroke-linecap:round;stroke-linejoin:round" /><line
           y2="59.939701"
           x2="1.58837"
           y1="64.574303"
           x1="0.771222"
           class="fil0 str0"
           id="_99792192-4"
           style="fill:none;stroke:#1f1a17;stroke-width:0.0717197;stroke-linecap:round;stroke-linejoin:round" /><line
           y2="72.978996"
           x2="0.035859801"
           y1="77.685097"
           x1="0.035859801"
           class="fil0 str0"
           id="_99214352-8"
           style="fill:none;stroke:#1f1a17;stroke-width:0.0717197;stroke-linecap:round;stroke-linejoin:round" /><line
           y2="86.089798"
           x2="0.771222"
           y1="90.724403"
           x1="1.58837"
           class="fil0 str0"
           id="_99214640-7"
           style="fill:none;stroke:#1f1a17;stroke-width:0.0717197;stroke-linecap:round;stroke-linejoin:round" /><line
           y2="98.873703"
           x2="3.77196"
           y1="103.296"
           x1="5.3815198"
           class="fil0 str0"
           id="_99214928-8"
           style="fill:none;stroke:#1f1a17;stroke-width:0.0717197;stroke-linecap:round;stroke-linejoin:round" /><line
           y2="110.942"
           x2="8.9470701"
           y1="115.018"
           x1="11.3002"
           class="fil0 str0"
           id="_99795472-0"
           style="fill:none;stroke:#1f1a17;stroke-width:0.0717197;stroke-linecap:round;stroke-linejoin:round" /><line
           y2="121.929"
           x2="16.139299"
           y1="125.534"
           x1="19.164301"
           class="fil0 str0"
           id="_99795760-0"
           style="fill:none;stroke:#1f1a17;stroke-width:0.0717197;stroke-linecap:round;stroke-linejoin:round" /><line
           y2="131.5"
           x2="25.129999"
           y1="134.52499"
           x1="28.7351"
           class="fil0 str0"
           id="_99795952-0"
           style="fill:none;stroke:#1f1a17;stroke-width:0.0717197;stroke-linecap:round;stroke-linejoin:round" /><line
           y2="139.364"
           x2="35.646198"
           y1="141.717"
           x1="39.721802"
           class="fil0 str0"
           id="_99796240-1"
           style="fill:none;stroke:#1f1a17;stroke-width:0.0717197;stroke-linecap:round;stroke-linejoin:round" /><line
           y2="145.283"
           x2="47.368099"
           y1="146.892"
           x1="51.790298"
           class="fil0 str0"
           id="_99791352-9"
           style="fill:none;stroke:#1f1a17;stroke-width:0.0717197;stroke-linecap:round;stroke-linejoin:round" /><line
           y2="149.076"
           x2="59.939701"
           y1="149.89301"
           x1="64.574303"
           class="fil0 str0"
           id="_98546000-0"
           style="fill:none;stroke:#1f1a17;stroke-width:0.0717197;stroke-linecap:round;stroke-linejoin:round" /><line
           y2="150.62801"
           x2="77.685097"
           y1="150.62801"
           x1="72.979103"
           class="fil0 str0"
           id="_98492864-6"
           style="fill:none;stroke:#1f1a17;stroke-width:0.0717197;stroke-linecap:round;stroke-linejoin:round" /><line
           y2="149.076"
           x2="90.724403"
           y1="149.89301"
           x1="86.089798"
           class="fil0 str0"
           id="_97837704-5"
           style="fill:none;stroke:#1f1a17;stroke-width:0.0717197;stroke-linecap:round;stroke-linejoin:round" /><line
           y2="145.283"
           x2="103.296"
           y1="146.892"
           x1="98.873802"
           class="fil0 str0"
           id="_99792472-7"
           style="fill:none;stroke:#1f1a17;stroke-width:0.0717197;stroke-linecap:round;stroke-linejoin:round" /><line
           y2="139.364"
           x2="115.018"
           y1="141.717"
           x1="110.942"
           class="fil0 str0"
           id="_99792760-3"
           style="fill:none;stroke:#1f1a17;stroke-width:0.0717197;stroke-linecap:round;stroke-linejoin:round" /><line
           y2="131.5"
           x2="125.534"
           y1="134.52499"
           x1="121.929"
           class="fil0 str0"
           id="_99793048-3"
           style="fill:none;stroke:#1f1a17;stroke-width:0.0717197;stroke-linecap:round;stroke-linejoin:round" /><line
           y2="121.929"
           x2="134.52499"
           y1="125.534"
           x1="131.5"
           class="fil0 str0"
           id="_99790856-7"
           style="fill:none;stroke:#1f1a17;stroke-width:0.0717197;stroke-linecap:round;stroke-linejoin:round" /><line
           y2="110.942"
           x2="141.717"
           y1="115.018"
           x1="139.364"
           class="fil0 str0"
           id="_99791520-9"
           style="fill:none;stroke:#1f1a17;stroke-width:0.0717197;stroke-linecap:round;stroke-linejoin:round" /><line
           y2="98.873802"
           x2="146.892"
           y1="103.296"
           x1="145.283"
           class="fil0 str0"
           id="_99791808-8"
           style="fill:none;stroke:#1f1a17;stroke-width:0.0717197;stroke-linecap:round;stroke-linejoin:round" /><line
           y2="86.089798"
           x2="149.89301"
           y1="90.724403"
           x1="149.076"
           class="fil0 str0"
           id="_99792096-1"
           style="fill:none;stroke:#1f1a17;stroke-width:0.0717197;stroke-linecap:round;stroke-linejoin:round" /><line
           y2="72.979103"
           x2="150.62801"
           y1="77.685097"
           x1="150.62801"
           class="fil0 str0"
           id="_99214256-7"
           style="fill:none;stroke:#1f1a17;stroke-width:0.0717197;stroke-linecap:round;stroke-linejoin:round" /><line
           y2="59.939701"
           x2="149.076"
           y1="64.574303"
           x1="149.89301"
           class="fil0 str0"
           id="_99214544-2"
           style="fill:none;stroke:#1f1a17;stroke-width:0.0717197;stroke-linecap:round;stroke-linejoin:round" /><line
           y2="47.368198"
           x2="145.283"
           y1="51.790298"
           x1="146.892"
           class="fil0 str0"
           id="_99214832-3"
           style="fill:none;stroke:#1f1a17;stroke-width:0.0717197;stroke-linecap:round;stroke-linejoin:round" /><line
           y2="35.646198"
           x2="139.364"
           y1="39.721802"
           x1="141.717"
           class="fil0 str0"
           id="_99215120-8"
           style="fill:none;stroke:#1f1a17;stroke-width:0.0717197;stroke-linecap:round;stroke-linejoin:round" /><line
           y2="25.1301"
           x2="131.5"
           y1="28.7351"
           x1="134.52499"
           class="fil0 str0"
           id="_99795664-5"
           style="fill:none;stroke:#1f1a17;stroke-width:0.0717197;stroke-linecap:round;stroke-linejoin:round" /><line
           y2="16.1394"
           x2="121.929"
           y1="19.164301"
           x1="125.534"
           class="fil0 str0"
           id="_99796048-3"
           style="fill:none;stroke:#1f1a17;stroke-width:0.0717197;stroke-linecap:round;stroke-linejoin:round" /><line
           y2="8.9471703"
           x2="110.942"
           y1="11.3002"
           x1="115.018"
           class="fil0 str0"
           id="_99796336-8"
           style="fill:none;stroke:#1f1a17;stroke-width:0.0717197;stroke-linecap:round;stroke-linejoin:round" /><line
           y2="3.77196"
           x2="98.873802"
           y1="5.3815198"
           x1="103.296"
           class="fil0 str0"
           id="_99792120-7"
           style="fill:none;stroke:#1f1a17;stroke-width:0.0717197;stroke-linecap:round;stroke-linejoin:round" /><line
           y2="0.771222"
           x2="86.089798"
           y1="1.58837"
           x1="90.724403"
           class="fil0 str0"
           id="_99790048-0"
           style="fill:none;stroke:#1f1a17;stroke-width:0.0717197;stroke-linecap:round;stroke-linejoin:round" /><path
           inkscape:connector-curvature="0"
           d="m 72.9791,0.0359539 c -0.07031,6.45091 -7.24434,7.6516 -8.40466,0.735174"
           class="fil0 str0"
           id="_99791144-0"
           style="fill:none;stroke:#1f1a17;stroke-width:0.0717197;stroke-linecap:round;stroke-linejoin:round" /><path
           inkscape:connector-curvature="0"
           d="m 59.9398,1.58847 c 1.05085,6.36517 -5.80562,8.79338 -8.1494,2.1835"
           class="fil0 str0"
           id="_97837608-3"
           style="fill:none;stroke:#1f1a17;stroke-width:0.0717197;stroke-linecap:round;stroke-linejoin:round" /><path
           inkscape:connector-curvature="0"
           d="m 47.3682,5.38161 c 2.1402,6.08601 -4.19042,9.66794 -7.64633,3.56546"
           class="fil0 str0"
           id="_99792928-8"
           style="fill:none;stroke:#1f1a17;stroke-width:0.0717197;stroke-linecap:round;stroke-linejoin:round" /><path
           inkscape:connector-curvature="0"
           d="m 35.6463,11.3002 c 3.16451,5.6219 -2.44797,10.2487 -6.91106,4.8391"
           class="fil0 str0"
           id="_99791496-0"
           style="fill:none;stroke:#1f1a17;stroke-width:0.0717197;stroke-linecap:round;stroke-linejoin:round" /><path
           inkscape:connector-curvature="0"
           d="m 25.1301,19.1643 c 4.09273,4.98706 -0.631076,10.5181 -5.96572,5.96572"
           class="fil0 str0"
           id="_99792072-7"
           style="fill:none;stroke:#1f1a17;stroke-width:0.0717197;stroke-linecap:round;stroke-linejoin:round" /><path
           inkscape:connector-curvature="0"
           d="m 16.1394,28.7351 c 4.89651,4.20059 1.20493,10.4679 -4.83919,6.91097"
           class="fil0 str0"
           id="_99214520-9"
           style="fill:none;stroke:#1f1a17;stroke-width:0.0717197;stroke-linecap:round;stroke-linejoin:round" /><path
           inkscape:connector-curvature="0"
           d="m 8.94717,39.7218 c 5.55159,3.2864 3.00441,10.0996 -3.56556,7.64624"
           class="fil0 str0"
           id="_99215096-1"
           style="fill:none;stroke:#1f1a17;stroke-width:0.0717197;stroke-linecap:round;stroke-linejoin:round" /><path
           inkscape:connector-curvature="0"
           d="m 3.77206,51.7903 c 6.03791,2.27253 4.71251,9.42455 -2.18368,8.14931"
           class="fil0 str0"
           id="_99795928-0"
           style="fill:none;stroke:#1f1a17;stroke-width:0.0717197;stroke-linecap:round;stroke-linejoin:round" /><path
           inkscape:connector-curvature="0"
           d="m 0.771222,64.5742 c 6.34079,1.18959 6.27745,8.46301 -0.735362,8.40475"
           class="fil0 str0"
           id="_99796528-4"
           style="fill:none;stroke:#1f1a17;stroke-width:0.0717197;stroke-linecap:round;stroke-linejoin:round" /><path
           inkscape:connector-curvature="0"
           d="m 0.0359539,77.6851 c 6.45091,0.07031 7.6516,7.24434 0.735174,8.40466"
           class="fil0 str0"
           id="_99790000-6"
           style="fill:none;stroke:#1f1a17;stroke-width:0.0717197;stroke-linecap:round;stroke-linejoin:round" /><path
           inkscape:connector-curvature="0"
           d="m 1.58847,90.7243 c 6.36517,-1.05085 8.79338,5.80562 2.1835,8.1494"
           class="fil0 str0"
           id="_97667472-6"
           style="fill:none;stroke:#1f1a17;stroke-width:0.0717197;stroke-linecap:round;stroke-linejoin:round" /><path
           inkscape:connector-curvature="0"
           d="m 5.38161,103.296 c 6.08601,-2.1402 9.66794,4.19042 3.56546,7.64633"
           class="fil0 str0"
           id="_100560400-2"
           style="fill:none;stroke:#1f1a17;stroke-width:0.0717197;stroke-linecap:round;stroke-linejoin:round" /><path
           inkscape:connector-curvature="0"
           d="m 11.3002,115.018 c 5.6219,-3.16451 10.2487,2.44797 4.8391,6.91106"
           class="fil0 str0"
           id="_97668032-8"
           style="fill:none;stroke:#1f1a17;stroke-width:0.0717197;stroke-linecap:round;stroke-linejoin:round" /><path
           inkscape:connector-curvature="0"
           d="m 19.1643,125.534 c 4.98706,-4.09273 10.5181,0.63108 5.96572,5.96572"
           class="fil0 str0"
           id="_97668248-5"
           style="fill:none;stroke:#1f1a17;stroke-width:0.0717197;stroke-linecap:round;stroke-linejoin:round" /><path
           inkscape:connector-curvature="0"
           d="m 28.7351,134.525 c 4.20059,-4.89651 10.4679,-1.20493 6.91097,4.83919"
           class="fil0 str0"
           id="_99906792-7"
           style="fill:none;stroke:#1f1a17;stroke-width:0.0717197;stroke-linecap:round;stroke-linejoin:round" /><path
           inkscape:connector-curvature="0"
           d="m 39.7218,141.717 c 3.2864,-5.55159 10.0996,-3.00441 7.64624,3.56556"
           class="fil0 str0"
           id="_99907032-9"
           style="fill:none;stroke:#1f1a17;stroke-width:0.0717197;stroke-linecap:round;stroke-linejoin:round" /><path
           inkscape:connector-curvature="0"
           d="m 51.7903,146.892 c 2.27253,-6.03791 9.42455,-4.71251 8.14931,2.18368"
           class="fil0 str0"
           id="_99907280-6"
           style="fill:none;stroke:#1f1a17;stroke-width:0.0717197;stroke-linecap:round;stroke-linejoin:round" /><path
           inkscape:connector-curvature="0"
           d="m 64.5742,149.893 c 1.18959,-6.34079 8.46301,-6.27745 8.40475,0.73536"
           class="fil0 str0"
           id="_99907592-2"
           style="fill:none;stroke:#1f1a17;stroke-width:0.0717197;stroke-linecap:round;stroke-linejoin:round" /><path
           inkscape:connector-curvature="0"
           d="m 77.6851,150.628 c -0.08029,-6.45882 7.24444,-7.6517 8.40475,-0.73527"
           class="fil0 str0"
           id="_100536872-6"
           style="fill:none;stroke:#1f1a17;stroke-width:0.0717197;stroke-linecap:round;stroke-linejoin:round" /><path
           inkscape:connector-curvature="0"
           d="m 90.7243,149.076 c -1.2006,-6.34672 5.80572,-8.79347 8.1495,-2.18359"
           class="fil0 str0"
           id="_98546240-3"
           style="fill:none;stroke:#1f1a17;stroke-width:0.0717197;stroke-linecap:round;stroke-linejoin:round" /><path
           inkscape:connector-curvature="0"
           d="m 103.296,145.283 c -2.28449,-6.04186 4.19052,-9.66804 7.64643,-3.56556"
           class="fil0 str0"
           id="_99792880-9"
           style="fill:none;stroke:#1f1a17;stroke-width:0.0717197;stroke-linecap:round;stroke-linejoin:round" /><path
           inkscape:connector-curvature="0"
           d="m 115.018,139.364 c -3.29892,-5.55338 2.44807,-10.2489 6.91116,-4.83919"
           class="fil0 str0"
           id="_99791448-2"
           style="fill:none;stroke:#1f1a17;stroke-width:0.0717197;stroke-linecap:round;stroke-linejoin:round" /><path
           inkscape:connector-curvature="0"
           d="m 125.534,131.5 c -4.21311,-4.89614 0.63117,-10.5182 5.96581,-5.96572"
           class="fil0 str0"
           id="_99792024-5"
           style="fill:none;stroke:#1f1a17;stroke-width:0.0717197;stroke-linecap:round;stroke-linejoin:round" /><path
           inkscape:connector-curvature="0"
           d="m 134.525,121.929 c -4.99929,-4.09009 -1.20493,-10.468 4.83919,-6.91106"
           class="fil0 str0"
           id="_99214472-1"
           style="fill:none;stroke:#1f1a17;stroke-width:0.0717197;stroke-linecap:round;stroke-linejoin:round" /><path
           inkscape:connector-curvature="0"
           d="m 141.717,110.942 c -5.63357,-3.1599 -3.00432,-10.0998 3.56565,-7.64643"
           class="fil0 str0"
           id="_99215048-8"
           style="fill:none;stroke:#1f1a17;stroke-width:0.0717197;stroke-linecap:round;stroke-linejoin:round" /><path
           inkscape:connector-curvature="0"
           d="m 146.892,98.8738 c -6.09674,-2.13361 -4.7126,-9.42464 2.18359,-8.1494"
           class="fil0 str0"
           id="_99795880-2"
           style="fill:none;stroke:#1f1a17;stroke-width:0.0717197;stroke-linecap:round;stroke-linejoin:round" /><path
           inkscape:connector-curvature="0"
           d="m 149.893,86.0899 c -6.37458,-1.04257 -6.27745,-8.46311 0.73536,-8.40485"
           class="fil0 str0"
           id="_99796456-9"
           style="fill:none;stroke:#1f1a17;stroke-width:0.0717197;stroke-linecap:round;stroke-linejoin:round" /><path
           inkscape:connector-curvature="0"
           d="m 150.628,72.9791 c -6.45882,0.08029 -7.6517,-7.24444 -0.73527,-8.40475"
           class="fil0 str0"
           id="_98756584-4"
           style="fill:none;stroke:#1f1a17;stroke-width:0.0717197;stroke-linecap:round;stroke-linejoin:round" /><path
           inkscape:connector-curvature="0"
           d="m 149.076,59.9398 c -6.34672,1.2006 -8.79347,-5.80572 -2.18359,-8.1495"
           class="fil0 str0"
           id="_97667760-9"
           style="fill:none;stroke:#1f1a17;stroke-width:0.0717197;stroke-linecap:round;stroke-linejoin:round" /><path
           inkscape:connector-curvature="0"
           d="m 145.283,47.3682 c -6.04186,2.28449 -9.66804,-4.19052 -3.56556,-7.64643"
           class="fil0 str0"
           id="_84813432-8"
           style="fill:none;stroke:#1f1a17;stroke-width:0.0717197;stroke-linecap:round;stroke-linejoin:round" /><path
           inkscape:connector-curvature="0"
           d="m 139.364,35.6463 c -5.55338,3.29892 -10.2489,-2.44807 -4.83919,-6.91116"
           class="fil0 str0"
           id="_97668056-1"
           style="fill:none;stroke:#1f1a17;stroke-width:0.0717197;stroke-linecap:round;stroke-linejoin:round" /><path
           inkscape:connector-curvature="0"
           d="m 131.5,25.1301 c -4.89614,4.21311 -10.5182,-0.631171 -5.96572,-5.96581"
           class="fil0 str0"
           id="_97668368-9"
           style="fill:none;stroke:#1f1a17;stroke-width:0.0717197;stroke-linecap:round;stroke-linejoin:round" /><path
           inkscape:connector-curvature="0"
           d="m 121.929,16.1394 c -4.09009,4.99929 -10.468,1.20493 -6.91106,-4.83919"
           class="fil0 str0"
           id="_99906840-4"
           style="fill:none;stroke:#1f1a17;stroke-width:0.0717197;stroke-linecap:round;stroke-linejoin:round" /><path
           inkscape:connector-curvature="0"
           d="m 110.942,8.94717 c -3.1599,5.63357 -10.0998,3.00432 -7.64643,-3.56565"
           class="fil0 str0"
           id="_99907056-2"
           style="fill:none;stroke:#1f1a17;stroke-width:0.0717197;stroke-linecap:round;stroke-linejoin:round" /><path
           inkscape:connector-curvature="0"
           d="M 98.8738,3.77196 C 96.74019,9.8687 89.44916,8.48456 90.7244,1.58837"
           class="fil0 str0"
           id="_99907400-6"
           style="fill:none;stroke:#1f1a17;stroke-width:0.0717197;stroke-linecap:round;stroke-linejoin:round" /><path
           inkscape:connector-curvature="0"
           d="M 86.0899,0.771222 C 85.04733,7.145802 77.62679,7.048672 77.68505,0.03586"
           class="fil0 str0"
           id="_99907672-8"
           style="fill:none;stroke:#1f1a17;stroke-width:0.0717197;stroke-linecap:round;stroke-linejoin:round" /><circle
           r="66.067902"
           cy="75.3321"
           cx="75.3321"
           class="fil0 str0"
           id="_99790472-4"
           style="fill:none;stroke:#1f1a17;stroke-width:0.0717197;stroke-linecap:round;stroke-linejoin:round" /></g><path
         transform="scale(0.26562838,0.26562838)"
         inkscape:connector-curvature="0"
         id="path3422-6"
         d="m 274.81996,562.56931 c -0.58882,-5.63349 -3.348,-10.99444 -6.96815,-13.53878 -2.36079,-1.65923 -3.6431,-2.04882 -7.3363,-2.22891 -3.99648,-0.19489 -4.8489,-7e-5 -7.96471,1.82034 -4.04931,2.36581 -7.70571,7.29854 -8.91891,12.03222 l -0.79898,3.11743 -8.07686,-1.41006 -8.07686,-1.41006 -0.37641,-6.38204 c -0.31308,-5.30815 -0.67843,-6.8974 -2.17128,-9.44475 -6.39708,-10.9158 -21.17411,-8.68123 -27.97299,4.23004 l -1.60216,3.04254 -7.62746,-2.80978 c -6.23146,-2.29552 -7.5953,-3.03557 -7.45178,-4.04348 0.0966,-0.67854 0.47632,-2.9466 0.84378,-5.04014 1.05479,-6.00958 -0.594,-11.67496 -4.46316,-15.33577 -6.09605,-5.76777 -16.4078,-4.06129 -23.49269,3.88778 l -3.28169,3.68197 -7.03449,-4.10352 -7.03448,-4.10351 1.38206,-3.12245 c 0.87539,-1.97773 1.49154,-5.07957 1.68068,-8.4608 0.26302,-4.70219 0.10679,-5.69618 -1.311,-8.34116 -1.05107,-1.96085 -2.71466,-3.68723 -4.7943,-4.97525 -2.71123,-1.67919 -3.84442,-1.96872 -7.62205,-1.94742 -5.06951,0.0286 -8.9731,1.58079 -13.30906,5.29221 -1.47642,1.26377 -2.88591,2.29776 -3.13219,2.29776 -0.60159,0 -12.352265,-9.9911 -12.352265,-10.50261 0,-0.22145 0.426706,-0.8767 0.948235,-1.45611 1.749941,-1.94418 4.26963,-7.69821 4.72573,-10.79183 1.99807,-13.55246 -13.597447,-20.781 -26.483889,-12.27531 l -2.459379,1.62331 -5.459252,-6.38245 -5.459245,-6.38245 2.6911,-2.77386 c 7.49427,-7.72471 8.097302,-17.63114 1.421112,-23.3457 -4.703115,-4.02569 -11.457593,-4.88139 -18.712645,-2.37063 -3.38854,1.17267 -4.187243,1.258 -4.684893,0.50047 -2.1245,-3.23394 -7.250472,-12.54527 -7.250472,-13.17049 0,-0.41521 0.292631,-0.75493 0.650291,-0.75493 0.357659,0 2.435211,-1.74654 4.616781,-3.88121 3.218572,-3.14937 4.17747,-4.60695 5.085401,-7.73012 1.639702,-5.64038 0.580212,-9.94633 -3.450768,-14.0245 -3.863029,-3.90826 -9.65151,-5.27661 -17.644389,-4.17098 l -3.736116,0.51679 -2.603161,-7.18209 c -1.431739,-3.95015 -2.689432,-7.37786 -2.794874,-7.61713 -0.105443,-0.23927 1.500974,-1.29146 3.569815,-2.3382 6.497375,-3.28737 10.968682,-9.56927 10.968682,-15.41032 0,-2.80892 -3.107243,-8.65246 -5.61997,-10.56901 -3.274737,-2.49777 -7.568328,-3.79937 -12.821958,-3.88695 L 6.2899564,340.818 5.149195,334.12916 c -0.6274187,-3.67886 -1.287282,-7.33579 -1.4663629,-8.12651 -0.2825436,-1.24756 0.1451287,-1.57493 3.2340274,-2.47551 11.4649585,-3.34266 16.6847445,-12.40755 12.3023745,-21.36479 -2.282996,-4.66627 -7.062489,-8.10481 -12.7553085,-9.1766 -2.1972193,-0.41366 -4.370296,-0.85372 -4.8290594,-0.9779 -0.6102697,-0.16519 -0.83411536,-2.4448 -0.83411536,-8.49452 l 0,-8.26874 3.62001536,-0.37362 c 14.7729399,-1.5247 21.1775229,-14.7007 12.1376599,-24.97053 -2.622787,-2.97964 -9.3728499,-6.87092 -11.9207446,-6.87206 -1.4198844,-6.4e-4 -1.4319258,0.56332 0.1769564,-8.28791 0.7284481,-4.00754 1.3244512,-7.53585 1.3244512,-7.84069 0,-0.30483 2.2923432,-0.55424 5.094096,-0.55424 6.430349,0 9.545982,-0.93449 13.014682,-3.90356 3.35848,-2.87474 4.57916,-5.61798 4.57916,-10.29077 0,-6.44656 -4.151352,-12.52785 -10.862053,-15.91175 -1.549592,-0.78138 -2.892779,-1.48416 -2.98486,-1.56171 -0.122572,-0.10323 5.068282,-14.84532 5.447839,-15.47193 0.03186,-0.0526 2.118407,0.33177 4.63678,0.85413 11.410243,2.36674 20.444601,-3.59164 20.444601,-13.48372 0,-4.88878 -3.202915,-10.95984 -7.72809,-14.64842 l -3.390689,-2.76385 3.88462,-6.61826 c 2.136541,-3.64004 3.962633,-6.84078 4.057982,-7.11274 0.09535,-0.27196 1.975051,0.24641 4.177115,1.15192 9.579032,3.93903 18.765656,1.23014 21.988795,-6.48392 2.323486,-5.56088 0.879612,-12.40747 -3.922467,-18.59968 l -2.900457,-3.74009 3.141678,-3.68165 c 1.727922,-2.02491 4.046262,-4.779075 5.151872,-6.120366 l 2.010191,-2.438719 3.857217,2.322697 c 8.091459,4.872418 15.466066,4.670478 20.703483,-0.566938 5.088046,-5.088044 5.625086,-12.243165 1.531036,-20.398244 -1.199245,-2.388813 -2.180732,-4.521453 -2.181079,-4.739203 -3.53e-4,-0.217745 2.685205,-2.669196 5.967909,-5.447666 l 5.96855,-5.051766 3.0399,2.680149 c 4.90018,4.320289 7.68815,5.490045 13.15602,5.51992 4.25573,0.02322 5.09027,-0.193314 7.6374,-1.981885 6.05776,-4.253688 8.00916,-13.245739 4.70508,-21.680893 -0.79069,-2.018559 -1.21269,-3.74812 -0.93778,-3.843469 0.2749,-0.09535 3.5006,-1.934654 7.16821,-4.087347 6.60814,-3.878615 6.67687,-3.901169 7.60566,-2.495808 1.85111,2.800905 6.45628,7.223031 8.74753,8.399848 7.50467,3.854487 15.57928,1.270104 19.53117,-6.251198 1.11223,-2.116825 1.4416,-3.934931 1.46209,-8.070687 0.0145,-2.936086 -0.20494,-6.239183 -0.48776,-7.340215 l -0.5142,-2.001877 7.18712,-2.589379 c 3.95293,-1.424158 7.4989,-2.70808 7.87994,-2.85316 0.38104,-0.145079 1.37302,1.136306 2.2044,2.847523 2.21301,4.555046 4.6303,7.4577 7.71707,9.266531 6.07443,3.559598 12.17141,2.765032 17.16999,-2.237618 3.64318,-3.646148 5.2467,-8.097394 5.2467,-14.564395 0,-2.3189578 0.24941,-4.216286 0.55424,-4.216286 0.30484,0 3.83315,-0.5960031 7.84069,-1.3244512 8.76535,-1.5932718 8.28738,-1.5720007 8.28738,-0.3688114 0,2.2973824 3.01822,8.7491246 5.25212,11.2269526 9.39324,10.418882 24.45901,3.952182 26.48629,-11.3687438 l 0.46355,-3.50328446 8.1838,0 c 8.89369,0 8.99387,0.0442704 8.99387,3.97443346 0,5.5287198 4.07661,11.9924138 9.11969,14.4597618 3.0703,1.502155 4.17376,1.707823 7.3848,1.376413 6.47579,-0.66836 12.44695,-6.225726 14.58257,-13.5720086 0.93228,-3.2068977 1.25597,-3.6400971 2.50811,-3.3565183 0.79072,0.1790809 4.44049,0.837686 8.1106,1.4635669 l 6.67292,1.1379654 0,5.4797046 c 0,4.780028 0.25691,5.982061 2.0121,9.414051 6.13385,11.993786 21.83776,10.044657 28.42662,-3.528239 0.75719,-1.559796 1.425,-2.830214 1.48401,-2.82315 0.059,0.0071 3.56054,1.283259 7.78116,2.835992 l 7.67386,2.82315 -0.78041,3.002815 c -2.36768,9.110164 0.4594,17.288233 7.15765,20.705427 6.46716,3.299302 16.2342,0.207246 21.10854,-6.682556 1.03129,-1.457724 2.13029,-2.656818 2.4422,-2.664655 0.64862,-0.01629 13.77966,7.336467 13.77966,7.715963 0,0.137059 -0.78418,2.582704 -1.74264,5.434763 -1.36141,4.051136 -1.66182,5.97228 -1.37321,8.781702 1.36687,13.305749 16.55309,17.407668 27.40702,7.402858 l 3.03702,-2.799423 6.33157,5.446798 6.33158,5.446797 -1.98536,2.740703 c -4.23714,5.849197 -5.04934,12.990159 -2.11609,18.605016 1.51156,2.893473 2.53796,3.914897 5.50516,5.47849 3.25668,1.716139 4.14731,1.890509 8.31823,1.628519 4.49505,-0.28234 10.87766,-2.671337 12.00342,-4.492851 0.23114,-0.373991 0.68243,-0.679984 1.00287,-0.679984 0.67534,0 10.68259,11.644375 10.68259,12.430205 0,0.28915 -1.02709,1.58937 -2.28243,2.88938 -3.72825,3.86095 -5.72508,8.31238 -5.72508,12.76264 0,4.87596 0.80014,6.98604 3.83277,10.10746 4.5763,4.71031 12.91999,5.77434 20.3398,2.59384 l 3.11046,-1.3333 4.1347,7.07388 4.13469,7.07387 -1.92802,1.35798 c -2.8614,2.01539 -6.76511,6.18748 -8.07086,8.62573 -0.77164,1.44091 -1.15742,3.7173 -1.17346,6.9244 -0.0213,4.25661 0.1957,5.09055 1.98936,7.64492 1.26688,1.80418 3.36969,3.58119 5.67199,4.79318 3.42361,1.80229 4.02317,1.90358 9.33069,1.57638 3.11959,-0.19232 6.22715,-0.44546 6.90569,-0.56253 1.01678,-0.17543 1.7294,1.13279 4.05294,7.44041 l 2.81923,7.65327 -3.14512,1.45716 c -9.32408,4.31991 -13.62058,13.4296 -10.04575,21.29957 2.50393,5.51239 7.6474,8.3716 16.07506,8.93599 l 5.65173,0.3785 1.42679,8.17433 c 1.13551,6.50548 1.24658,8.17433 0.54405,8.17433 -0.48551,0 -2.31958,0.48774 -4.07571,1.08388 -7.80989,2.65112 -12.42815,8.17219 -12.41828,14.84589 0.0124,8.41028 6.7875,14.899 16.61563,15.91335 l 3.62002,0.37362 0,8.21756 0,8.21756 -2.50235,0.40886 c -5.48247,0.89577 -6.60758,1.19957 -9.17527,2.47752 -5.74346,2.85854 -8.34475,6.91445 -8.33489,12.9957 0.0119,7.36005 5.06473,13.24895 13.7047,15.97246 l 3.39588,1.07046 -1.39876,7.98628 -1.39877,7.98629 -5.65325,0.13037 c -4.32963,0.0999 -6.3885,0.48645 -8.79356,1.65119 -7.64154,3.70068 -10.50017,11.54281 -6.96726,19.11339 1.72444,3.69528 5.61812,7.5556 9.74386,9.6604 1.48458,0.75737 2.69924,1.6354 2.69924,1.95117 0,0.47878 -3.50638,10.43769 -4.98841,14.1682 -0.39235,0.98761 -0.72673,0.99865 -3.5611,0.1176 -4.65833,-1.44801 -11.27317,-0.8394 -15.0717,1.38668 -6.54753,3.83711 -8.63932,12.14819 -4.90003,19.46876 1.61173,3.15534 5.42676,7.25811 8.1838,8.80103 1.09389,0.61216 0.83651,1.31522 -2.94342,8.04024 l -4.14211,7.36942 -3.80494,-1.75068 c -5.01846,-2.30904 -11.853,-2.49181 -15.8162,-0.42295 -8.7706,4.57839 -10.04047,15.33301 -2.92111,24.73899 2.83082,3.74005 3.18153,4.52369 2.44562,5.46476 -0.4725,0.60423 -2.75551,3.3924 -5.07335,6.19594 l -4.21425,5.09734 -3.76583,-2.26766 c -2.07121,-1.24722 -4.82916,-2.56306 -6.12878,-2.92411 -14.99115,-4.16466 -24.34865,10.63223 -15.75199,24.9084 l 2.22875,3.70122 -5.09734,4.21425 c -2.80354,2.31784 -5.60221,4.60957 -6.21927,5.09272 -0.97198,0.76104 -1.608,0.48256 -4.75838,-2.08346 -4.91505,-4.00337 -8.69098,-5.37487 -13.78363,-5.0065 -5.01571,0.3628 -8.88884,2.86407 -11.16825,7.21243 -1.37126,2.61592 -1.54363,3.73364 -1.33784,8.6748 0.17325,4.16003 0.6202,6.41376 1.67669,8.45467 l 1.44047,2.78268 -7.40734,4.16344 c -6.85954,3.85553 -7.45854,4.07197 -8.09951,2.92662 -1.62276,-2.89973 -6.39643,-7.29958 -9.48933,-8.74626 -8.36481,-3.91257 -17.31725,0.21419 -19.99013,9.21475 -1.26325,4.25381 -1.29169,6.59447 -0.13439,11.05602 0.79565,3.06729 0.7771,3.49802 -0.16682,3.87336 -3.68482,1.46518 -13.66287,4.97768 -14.14026,4.97768 -0.31577,0 -1.22075,-1.2762 -2.01107,-2.836 -4.77399,-9.42206 -13.83396,-13.66578 -21.13788,-9.90103 -6.04089,3.11372 -8.94778,8.29728 -9.19003,16.38767 l -0.15927,5.31888 -8.04554,1.40915 -8.04554,1.40914 -0.43781,-2.05698 c -1.51642,-7.12458 -7.21711,-13.77513 -12.83933,-14.97863 -5.24995,-1.12382 -9.07659,0.0985 -13.19205,4.214 -3.51097,3.51096 -4.96517,6.73409 -5.96092,13.21188 l -0.38465,2.50235 -8.21586,0 -8.21585,0 -0.42804,-4.0953 z m 28.59784,-30.6244 c 35.60438,-2.99694 68.57358,-12.78056 99.18698,-29.43378 66.51587,-36.18361 113.638,-101.69299 126.3193,-175.60957 2.85279,-16.62835 3.36657,-23.25882 3.37086,-43.50253 0.004,-20.21462 -0.44354,-25.91207 -3.38309,-43.04035 C 512.36284,143.93028 438.86259,65.22594 343.46401,41.780467 307.86172,33.030727 270.50917,32.151519 235.02034,39.227907 155.25279,55.133367 88.455497,108.72704 55.507462,183.257 c -8.146897,18.42866 -15.512129,43.855 -18.280256,63.10731 -3.842332,26.7234 -3.513237,53.96303 0.969369,80.236 15.181027,88.97741 79.973215,164.44739 165.704355,193.01255 21.15168,7.04763 36.45068,10.12932 62.48215,12.58586 5.59131,0.52764 29.71504,0.36231 37.03472,-0.25381 z"
         style="fill:#cccccc" /></g></g></svg>